<svg xmlns="http://www.w3.org/2000/svg" width="18" height="18" viewBox="0 0 18 18">
  <defs>
    <linearGradient id="bdcb0763-24eb-482e-82fe-03ba9f8c0dfa" x1="13.092" y1="16.469" x2="13.092" y2="1.531" gradientUnits="userSpaceOnUse">
      <stop offset="0" stop-color="#773adc" />
      <stop offset="1" stop-color="#b77af4" />
    </linearGradient>
  </defs>
  <title>Icon714-Container</title>
  <g id="aba16c9a-61c6-4221-a819-a34ed0568d69">
    <g>
      <path d="M17.5,4.754a.451.451,0,0,0-.306-.427L8.961,1.541a.216.216,0,0,0-.066-.01H8.889a.205.205,0,0,0-.205.205V16.264a.205.205,0,0,0,.205.205h0a.218.218,0,0,0,.076-.014l8.252-3.3a.45.45,0,0,0,.283-.418Z" fill="url(#bdcb0763-24eb-482e-82fe-03ba9f8c0dfa)" />
      <path d="M8.842,1.535.7,3.021a.246.246,0,0,0-.2.242V14.5a.246.246,0,0,0,.195.241l8.14,1.727a.246.246,0,0,0,.3-.241V1.777A.246.246,0,0,0,8.842,1.535Z" fill="#552f99" />
      <polygon points="5.08 3.773 5.08 14.228 7.912 14.686 7.912 3.279 5.08 3.773" fill="#b77af4" opacity="0.75" />
      <polygon points="1.6 4.337 1.6 13.497 4.066 13.998 4.066 3.924 1.6 4.337" fill="#b77af4" opacity="0.75" />
    </g>
  </g>
</svg>