<svg xmlns="http://www.w3.org/2000/svg" width="18" height="18" viewBox="0 0 18 18">
  <defs>
    <linearGradient id="aa195391-5976-4157-b1f8-3c1ea6116a08" x1="4.083" y1="6.442" x2="4.083" y2="11.247" gradientUnits="userSpaceOnUse">
      <stop offset="0.15" stop-color="#a67af4"/>
      <stop offset="0.999" stop-color="#773adc"/>
    </linearGradient>
    <linearGradient id="b836dff6-8e1c-4217-bc60-37983c453786" x1="13.912" y1="6.442" x2="13.912" y2="11.247" gradientUnits="userSpaceOnUse">
          <stop offset="0.15" stop-color="#a67af4"/>
      <stop offset="0.999" stop-color="#773adc"/>
    </linearGradient>
  </defs>
  <g id="f6960756-a155-4441-81fb-57ce1dc4c95a">
    <g>
      <g>
        <path d="M13.358,13.117a.236.236,0,0,1-.236.236H4.879a.237.237,0,0,1-.236-.237v-.577a.266.266,0,0,0-.266-.266H3.729a.266.266,0,0,0-.265.266V14.06a.472.472,0,0,0,.471.472h10.13a.472.472,0,0,0,.471-.472V12.539a.266.266,0,0,0-.265-.266h-.648a.266.266,0,0,0-.265.266Zm.707-9.658H3.935a.471.471,0,0,0-.471.472V5.742a.266.266,0,0,0,.265.266h.648a.266.266,0,0,0,.266-.266V4.876a.237.237,0,0,1,.236-.237h8.243a.236.236,0,0,1,.236.235v.868a.266.266,0,0,0,.265.266h.648a.266.266,0,0,0,.265-.266V3.931A.471.471,0,0,0,14.065,3.459Z" fill="#b3b3b3"/>
        <path d="M16.184,15.924h.539a.253.253,0,0,1,.253.253v.539a.253.253,0,0,1-.253.253h-.539a.253.253,0,0,1-.253-.253v-.539A.253.253,0,0,1,16.184,15.924Zm-1.571,1.045h-.557a.253.253,0,0,1-.253-.253v-.539a.253.253,0,0,1,.253-.253h.558a.253.253,0,0,1,.253.254v.539A.254.254,0,0,1,14.613,16.969Zm-2.131,0h-.557a.253.253,0,0,1-.253-.253v-.539a.253.253,0,0,1,.253-.253h.558a.253.253,0,0,1,.253.253v.539A.254.254,0,0,1,12.482,16.969Zm-2.131,0H9.794a.253.253,0,0,1-.253-.253v-.539a.253.253,0,0,1,.253-.253h.559a.254.254,0,0,1,.253.254l0,.539A.252.252,0,0,1,10.351,16.969Zm-2.131,0H7.663a.253.253,0,0,1-.253-.253v-.539a.253.253,0,0,1,.253-.253H8.22a.253.253,0,0,1,.253.253v.539A.253.253,0,0,1,8.22,16.969Zm-2.131,0H5.532a.253.253,0,0,1-.253-.253v-.539a.253.253,0,0,1,.253-.253h.559a.254.254,0,0,1,.253.254l0,.539A.252.252,0,0,1,6.089,16.969Zm-2.131,0H3.4a.254.254,0,0,1-.254-.253v-.539a.254.254,0,0,1,.254-.253h.557a.252.252,0,0,1,.253.253v.539A.253.253,0,0,1,3.958,16.969ZM1.291,15.924H1.83a.253.253,0,0,1,.253.253v.539a.253.253,0,0,1-.253.253H1.291a.253.253,0,0,1-.253-.253v-.539A.253.253,0,0,1,1.291,15.924Zm.539-1.066H1.291a.253.253,0,0,1-.253-.253v-.558a.253.253,0,0,1,.253-.253H1.83a.253.253,0,0,1,.253.253v.558A.253.253,0,0,1,1.83,14.858Zm0-2.13H1.291a.254.254,0,0,1-.253-.254v-.559a.253.253,0,0,1,.253-.253H1.83a.253.253,0,0,1,.253.253v.559A.254.254,0,0,1,1.83,12.728Zm0-6.393H1.291a.253.253,0,0,1-.253-.253V5.526a.253.253,0,0,1,.253-.253H1.83a.253.253,0,0,1,.253.253v.556A.253.253,0,0,1,1.83,6.335Zm0-2.131H1.291a.253.253,0,0,1-.253-.253V3.4a.253.253,0,0,1,.253-.253H1.83a.253.253,0,0,1,.253.253v.556A.253.253,0,0,1,1.83,4.2ZM1.291,1.032H1.83a.253.253,0,0,1,.253.253v.539a.253.253,0,0,1-.253.253H1.291a.253.253,0,0,1-.253-.253V1.285A.253.253,0,0,1,1.291,1.032Zm6.93,1.045H7.663a.253.253,0,0,1-.253-.253V1.285a.253.253,0,0,1,.253-.253h.558a.254.254,0,0,1,.253.253v.539A.253.253,0,0,1,8.221,2.077Zm-2.131,0H5.532a.253.253,0,0,1-.253-.253V1.285a.254.254,0,0,1,.253-.253h.559a.253.253,0,0,1,.253.254v.539A.252.252,0,0,1,6.09,2.077Zm-2.131,0H3.4a.254.254,0,0,1-.254-.253V1.285A.254.254,0,0,1,3.4,1.032H3.96a.254.254,0,0,1,.253.254v.539A.252.252,0,0,1,3.959,2.077ZM16.722,14.858h-.535a.253.253,0,0,1-.253-.253v-.558a.253.253,0,0,1,.253-.253h.537a.254.254,0,0,1,.253.254l0,.558A.252.252,0,0,1,16.722,14.858Zm0-2.13h-.535a.254.254,0,0,1-.253-.254v-.559a.253.253,0,0,1,.253-.253h.537a.254.254,0,0,1,.253.254l0,.559A.253.253,0,0,1,16.722,12.728ZM9.542,1.284A.253.253,0,0,1,9.8,1.031h.558a.253.253,0,0,1,.253.253v.539a.253.253,0,0,1-.253.253H9.8a.253.253,0,0,1-.253-.253m2.131,0V1.284a.253.253,0,0,1,.253-.253h.556a.253.253,0,0,1,.253.253v.539a.253.253,0,0,1-.253.253h-.556A.253.253,0,0,1,11.673,1.823Zm2.131,0V1.284a.253.253,0,0,1,.253-.253h.556a.253.253,0,0,1,.253.253v.539a.253.253,0,0,1-.253.253h-.556A.253.253,0,0,1,13.8,1.823Zm3.172-.539v.539a.253.253,0,0,1-.253.253h-.539a.253.253,0,0,1-.253-.253V1.284a.253.253,0,0,1,.253-.253h.539A.253.253,0,0,1,16.976,1.284Zm-1.045,4.8V5.526a.254.254,0,0,1,.253-.254h.539a.254.254,0,0,1,.253.254v.558a.253.253,0,0,1-.254.253h-.539A.252.252,0,0,1,15.931,6.083Zm0-2.131V3.4a.253.253,0,0,1,.253-.253h.539a.253.253,0,0,1,.253.253v.558a.253.253,0,0,1-.253.253h-.54A.252.252,0,0,1,15.931,3.952Z" fill="#773adc"/>
      </g>
      <path d="M7.666,8.412V9.581a.266.266,0,0,1-.266.266H3.209a.12.12,0,0,0-.12.12v.085l0,1.3a.122.122,0,0,1-.119.121.128.128,0,0,1-.086-.036L.535,9.082a.121.121,0,0,1,0-.171h0L2.886,6.56a.122.122,0,0,1,.169,0,.124.124,0,0,1,.036.086V8.026a.12.12,0,0,0,.119.121H7.4A.266.266,0,0,1,7.666,8.412Z" fill="url(#aa195391-5976-4157-b1f8-3c1ea6116a08)"/>
      <path d="M17.465,9.082l-2.351,2.351a.128.128,0,0,1-.086.036.122.122,0,0,1-.119-.121l0-1.295V9.968a.12.12,0,0,0-.12-.12h-4.2a.266.266,0,0,1-.266-.266V8.412a.266.266,0,0,1,.266-.266h4.2a.12.12,0,0,0,.119-.121V6.645a.124.124,0,0,1,.036-.086.122.122,0,0,1,.169,0l2.348,2.35h0A.121.121,0,0,1,17.465,9.082Z" fill="url(#b836dff6-8e1c-4217-bc60-37983c453786)"/>
    </g>
  </g>
</svg>
