<?xml version="1.0" encoding="utf-8"?>
<!-- Generator: Adobe Illustrator 20.0.0, SVG Export Plug-In . SVG Version: 6.00 Build 0)  -->
<!DOCTYPE svg PUBLIC "-//W3C//DTD SVG 1.1//EN" "http://www.w3.org/Graphics/SVG/1.1/DTD/svg11.dtd">
<svg version="1.1" id="Layer_1" xmlns="http://www.w3.org/2000/svg" xmlns:xlink="http://www.w3.org/1999/xlink" x="0px" y="0px"
	 width="50px" height="50px" viewBox="0 0 50 50" enable-background="new 0 0 50 50" xml:space="preserve">
<path fill="#59B4D9" d="M0.833,0C0.333,0,0,0.333,0,0.833v10c0,0.5,0.333,0.833,0.833,0.833h5c0.5,0,0.833-0.333,0.833-0.833V6.667
	h36.667v4.167c0,0.5,0.333,0.833,1,0.833h4.833c0.5,0,0.833-0.333,0.833-0.833v-5v-5C50,0.333,49.667,0,49.167,0l0,0H0.833z"/>
<path fill="#59B4D9" d="M49.167,50c0.5,0,0.833-0.333,0.833-0.833v-9.833c0-0.5-0.333-0.833-0.833-0.833h-4.833
	c-0.5,0-0.833,0.333-0.833,0.833v4H6.667v-4.167c0-0.5-0.333-0.833-1-0.833H0.833c-0.5,0-0.833,0.333-0.833,1v9.833
	C0,49.667,0.333,50,0.833,50H49.167z"/>
<g>
	<polygon fill="#804998" points="32.238,20.701 23.92,23.941 23.92,10.546 32.238,13.463 	"/>
	<path fill="#804998" d="M16.466,12.815v8.75l6.157,2.377V10.654L16.466,12.815z M17.114,20.917l-0.324-0.108v-7.238l0.324-0.108
		l0.324-0.108l0.324-0.108v7.886l-0.324-0.108L17.114,20.917z M18.735,21.349l-0.432-0.108v-8.102l0.432-0.108l0.432-0.108
		l0.432-0.108v8.858l-0.432-0.108L18.735,21.349z M20.679,21.997l-0.54-0.216v-9.182l0.54-0.108l0.54-0.216l0.648-0.216v10.262
		l-0.648-0.216L20.679,21.997z"/>
	<polygon fill="#804998" points="42.5,33.988 34.29,37.12 34.29,23.833 42.5,26.75 	"/>
	<path fill="#804998" d="M26.728,25.994v8.75l6.157,2.377V23.833L26.728,25.994z M27.377,34.096l-0.324-0.108V26.75l0.324-0.108
		l0.324-0.108l0.324-0.108v7.886l-0.324-0.108L27.377,34.096z M28.997,34.636l-0.432-0.108v-8.102l0.432-0.108l0.432-0.108
		l0.432-0.108v8.858l-0.432-0.108L28.997,34.636z M30.941,35.284l-0.54-0.216v-9.182l0.54-0.108l0.54-0.216l0.648-0.216v10.262
		l-0.648-0.216L30.941,35.284z"/>
	<polygon fill="#804998" points="23.272,33.988 15.062,37.12 15.062,23.833 23.272,26.75 	"/>
	<path fill="#804998" d="M7.5,25.994v8.75l6.157,2.377V23.833L7.5,25.994z M8.148,34.096l-0.324-0.108V26.75l0.324-0.108
		l0.324-0.108l0.324-0.108v7.886l-0.324-0.108L8.148,34.096z M9.769,34.636l-0.432-0.108v-8.102l0.432-0.108l0.432-0.108
		l0.432-0.108v8.858l-0.432-0.108L9.769,34.636z M11.713,35.284l-0.54-0.216v-9.182l0.54-0.108l0.54-0.216l0.648-0.216v10.262
		l-0.648-0.216L11.713,35.284z"/>
	<polygon opacity="0.2" fill="#FFFFFF" enable-background="new    " points="32.238,20.701 23.92,23.941 23.92,10.546 
		32.238,13.463 	"/>
	<polygon opacity="0.2" fill="#FFFFFF" enable-background="new    " points="42.5,33.988 34.29,37.12 34.29,23.833 42.5,26.75 	"/>
	<polygon opacity="0.2" fill="#FFFFFF" enable-background="new    " points="23.272,33.988 15.062,37.12 15.062,23.833 
		23.272,26.75 	"/>
</g>
</svg>
