<svg width="15" height="16" viewBox="0 0 15 16" fill="none" xmlns="http://www.w3.org/2000/svg">
<g clip-path="url(#clip0_4324:29595)">
<path opacity="0.8" d="M3.48938 2.45459H2.52185V3.42212H3.48938V2.45459Z" fill="#59B4D9"/>
<path opacity="0.8" d="M5.42444 2.45459H4.45691V3.42212H5.42444V2.45459Z" fill="#59B4D9"/>
<path opacity="0.8" d="M7.3595 2.45459H6.39197V3.42212H7.3595V2.45459Z" fill="#59B4D9"/>
<path opacity="0.8" d="M9.29455 2.45459H8.32703V3.42212H9.29455V2.45459Z" fill="#59B4D9"/>
<path opacity="0.8" d="M3.48938 4.38965H2.52185V5.35718H3.48938V4.38965Z" fill="#59B4D9"/>
<path opacity="0.8" d="M5.42444 4.38965H4.45691V5.35718H5.42444V4.38965Z" fill="#59B4D9"/>
<path opacity="0.8" d="M7.3595 4.38965H6.39197V5.35718H7.3595V4.38965Z" fill="#59B4D9"/>
<path opacity="0.8" d="M9.29455 4.38965H8.32703V5.35718H9.29455V4.38965Z" fill="#59B4D9"/>
<path opacity="0.8" d="M3.48938 6.32471H2.52185V7.29223H3.48938V6.32471Z" fill="#59B4D9"/>
<path opacity="0.8" d="M5.42444 6.32471H4.45691V7.29223H5.42444V6.32471Z" fill="#59B4D9"/>
<path opacity="0.8" d="M7.3595 6.32471H6.39197V7.29223H7.3595V6.32471Z" fill="#59B4D9"/>
<path opacity="0.8" d="M9.29455 6.32471H8.32703V7.29223H9.29455V6.32471Z" fill="#59B4D9"/>
<path opacity="0.8" d="M3.48938 8.25977H2.52185V9.22729H3.48938V8.25977Z" fill="#59B4D9"/>
<path opacity="0.8" d="M5.42444 8.25977H4.45691V9.22729H5.42444V8.25977Z" fill="#59B4D9"/>
<path opacity="0.8" d="M7.3595 8.25977H6.39197V9.22729H7.3595V8.25977Z" fill="#59B4D9"/>
<path opacity="0.8" d="M9.29455 8.25977H8.32703V9.22729H9.29455V8.25977Z" fill="#59B4D9"/>
<path d="M10.7918 1.07928V12.9499H1.07928V1.07928H10.7918ZM11.8706 0H0V14.0291H11.8706V0Z" fill="#3999C6"/>
<path d="M11.7134 8.52283C11.7134 7.50644 10.9181 6.67969 10.0202 6.67969C9.12233 6.67969 8.32703 7.50644 8.32703 8.52283V9.71095H11.7134V8.52283Z" fill="white"/>
<path d="M8.32702 8.52567C8.32702 7.5117 9.12233 6.68689 10.0202 6.68689C10.9181 6.68689 11.7134 7.5117 11.7134 8.52567V9.71089H13.1647V8.52567C13.1647 6.70188 11.636 5.20947 10.0202 5.20947C8.40443 5.20947 6.87573 6.70188 6.87573 8.52567V9.71089H8.32702V8.52567Z" fill="#FCD116"/>
<path d="M14.6159 10.7191C14.6159 10.1623 14.1481 9.71094 13.571 9.71094H6.46937C5.89224 9.71094 5.42444 10.1623 5.42444 10.7191V14.7701C5.42444 15.3269 5.89224 15.9999 6.46937 15.9999H13.571C14.1481 15.9999 14.6159 15.3269 14.6159 14.7701V10.7191Z" fill="#FCD116"/>
<g opacity="0.3">
<path opacity="0.3" d="M8.32702 8.52567C8.32702 7.5117 9.12233 6.68689 10.0202 6.68689C10.9181 6.68689 11.7134 7.5117 11.7134 8.52567V9.71089H13.1647V8.52567C13.1647 6.70188 11.636 5.20947 10.0202 5.20947C8.40443 5.20947 6.87573 6.70188 6.87573 8.52567V9.71089H8.32702V8.52567Z" fill="#FF8C00"/>
<path opacity="0.3" d="M14.6159 10.7191C14.6159 10.1623 14.1481 9.71094 13.571 9.71094H6.46937C5.89224 9.71094 5.42444 10.1623 5.42444 10.7191V14.7701C5.42444 15.3269 5.89224 15.9999 6.46937 15.9999H13.571C14.1481 15.9999 14.6159 15.3269 14.6159 14.7701V10.7191Z" fill="#FF8C00"/>
</g>
</g>
<defs>
<clipPath id="clip0_4324:29595">
<rect width="14.616" height="16" fill="white"/>
</clipPath>
</defs>
</svg>
