<svg xmlns="http://www.w3.org/2000/svg" width="18" height="18" viewBox="0 0 18 18">
  <defs>
    <linearGradient id="ba4ffed3-7262-453b-be7e-785b176dfa7a" x1="80.014" y1="684.098" x2="80.014" y2="699.918" gradientTransform="matrix(1, 0, 0, -1, -72, 701.516)" gradientUnits="userSpaceOnUse">
      <stop offset="0.001" stop-color="#773adc"/>
      <stop offset="1" stop-color="#a67af4"/>
    </linearGradient>
    <linearGradient id="e63b88a9-8187-4734-9dc8-d7591176790f" x1="7.84" y1="10.949" x2="11.38" y2="10.949" gradientUnits="userSpaceOnUse">
      <stop offset="0" stop-color="#fff" stop-opacity="0.4"/>
      <stop offset="1" stop-color="#a67af4"/>
    </linearGradient>
    <linearGradient id="b237bdbd-4125-45b9-ac9a-2502c780b4c1" x1="5.93" y1="7.915" x2="5.93" y2="14.09" gradientUnits="userSpaceOnUse">
      <stop offset="0.135" stop-color="#fff" stop-opacity="0.6"/>
      <stop offset="1" stop-color="#a67af4"/>
    </linearGradient>
    <linearGradient id="aef1cbb1-dedf-46f1-96c6-5b5ce0b6eb3c" x1="-35" y1="819.436" x2="-35" y2="825.838" gradientTransform="matrix(1, 0, 0, -1, 44, 838.016)" gradientUnits="userSpaceOnUse">
      <stop offset="0" stop-color="#32bedd"/>
      <stop offset="0.746" stop-color="#50e6ff"/>
    </linearGradient>
  </defs>
  <g id="a2629457-ce9e-4d73-ae91-6d52e8069297">
    <path d="M14.244,6.688h-4.06a.915.915,0,0,1-.91-.92V1.728a.52.52,0,0,0-.35-.13H2.094a.538.538,0,0,0-.54.54v14.74a.538.538,0,0,0,.54.54h11.84a.536.536,0,0,0,.54-.53V7.128A.54.54,0,0,0,14.244,6.688Z" fill="url(#ba4ffed3-7262-453b-be7e-785b176dfa7a)"/>
    <path d="M16.471,5.53v9.758a.54.54,0,0,1-.54.54h-.778a.272.272,0,0,1-.272-.272V7.125a.94.94,0,0,0-.293-.683.238.238,0,0,0-.032-.038L9.564,1.428a.376.376,0,0,0-.136-.09.95.95,0,0,0-.505-.147H3.82A.272.272,0,0,1,3.548.919V.543A.54.54,0,0,1,4.087,0h6.834a.538.538,0,0,1,.353.135V.123L16.266,5.1h-.015A.536.536,0,0,1,16.471,5.53Zm-7.2-3.812v4.05a.915.915,0,0,0,.91.92h4.08Z" fill="#773adc"/>
    <path d="M11.42,9.059v3.565a.2.2,0,0,1-.122.187L7.75,14.276a.118.118,0,0,0,.046-.068.1.1,0,0,0,0-.025V7.73a.11.11,0,0,0-.085-.108l.01,0,3.564,1.244A.2.2,0,0,1,11.42,9.059Z" fill="url(#e63b88a9-8187-4734-9dc8-d7591176790f)"/>
    <path d="M7.8,7.73v6.453a.1.1,0,0,1,0,.025.118.118,0,0,1-.046.068.1.1,0,0,1-.056.015H7.669l-3.524-.772a.107.107,0,0,1-.084-.107V8.394a.11.11,0,0,1,.086-.109l3.525-.664h.021l.021,0A.11.11,0,0,1,7.8,7.73Z" fill="url(#b237bdbd-4125-45b9-ac9a-2502c780b4c1)"/>
    <path d="M7.269,8.4V13.5L6.043,13.29V8.621Zm-2.732.473v4.091l1.067.224v-4.5Z" fill="#fff" opacity="0.6"/>
    <rect y="11.605" width="18" height="6.391" rx="0.598" fill="url(#aef1cbb1-dedf-46f1-96c6-5b5ce0b6eb3c)"/>
    <rect x="6.445" y="13.184" width="5.132" height="0.928" rx="0.459" fill="#f2f2f2"/>
  </g>
</svg>
