<svg xmlns="http://www.w3.org/2000/svg" width="18" height="18" viewBox="0 0 18 18">
  <g id="a9a30ac1-f58b-42a9-85df-2c8ecf5816fe">
    <g id="a722e77e-74d5-41be-92f5-ad69c8340110">
      <path id="ad15af05-0f1f-40ea-acb7-fa8f3e3d4d15" d="M4.4222,11.7524H3.092v-.4178a1.3676,1.3676,0,0,1-.3853.3488,1.5587,1.5587,0,0,1-.7746.1906A1.8357,1.8357,0,0,1,.683,11.3914,1.9337,1.9337,0,0,1,.03,9.8665,1.9305,1.9305,0,0,1,.6993,8.3254,1.8143,1.8143,0,0,1,1.92,7.8672a1.712,1.712,0,0,1,.7543.17,1.5022,1.5022,0,0,1,.4177.32V5.6609h1.33Zm-1.29-1.8818a.8218.8218,0,0,0-.2515-.6063.8319.8319,0,0,0-.6083-.2494.819.819,0,0,0-.6529.3.8494.8494,0,0,0,0,1.1112.8116.8116,0,0,0,.6529.3.8339.8339,0,0,0,.61-.2474A.8237.8237,0,0,0,3.1326,9.8706Zm6.2787,1.8818h-1.33v-.4178a1.3676,1.3676,0,0,1-.3853.3488,1.5587,1.5587,0,0,1-.7746.1906,1.8355,1.8355,0,0,1-1.2491-.4826,1.9338,1.9338,0,0,1-.653-1.5249,1.9309,1.9309,0,0,1,.6692-1.5411A1.8147,1.8147,0,0,1,6.909,7.8672a1.7117,1.7117,0,0,1,.7543.17,1.5025,1.5025,0,0,1,.4178.32V7.9888h1.33Zm-1.29-1.8818A.8221.8221,0,0,0,7.87,9.2643a.8321.8321,0,0,0-.6084-.2494.8192.8192,0,0,0-.6529.3.85.85,0,0,0,0,1.1112.8117.8117,0,0,0,.6529.3.8337.8337,0,0,0,.61-.2474A.8233.8233,0,0,0,8.1216,9.8706Zm6.4288.004a1.9309,1.9309,0,0,1-.6692,1.5412,1.8147,1.8147,0,0,1-1.2207.4582,1.7131,1.7131,0,0,1-.7543-.17,1.5025,1.5025,0,0,1-.4178-.32v2.2508h-1.33V7.9888h1.33v.4177a1.2458,1.2458,0,0,1,.3853-.3487,1.5587,1.5587,0,0,1,.7746-.1906,1.8355,1.8355,0,0,1,1.2491.4826A1.9337,1.9337,0,0,1,14.55,9.8746Zm-1.383-.004a.8517.8517,0,0,0-.86-.8557.8334.8334,0,0,0-.61.2474.8616.8616,0,0,0,.002,1.2146.8321.8321,0,0,0,.6084.2494.8117.8117,0,0,0,.6529-.3A.8336.8336,0,0,0,13.1674,9.8706Zm4.8025-.653a1.3038,1.3038,0,0,0-.5678-.1338.8093.8093,0,0,0-.8516.5353,1.5271,1.5271,0,0,0-.073.5232v1.61h-1.33V7.9888h1.33v.6165a1.4506,1.4506,0,0,1,.4542-.4745,1.4993,1.4993,0,0,1,.7787-.1947q.1054,0,.2595.0122Z" fill="#0d2192" fill-rule="evenodd"/>
      <polygon id="a291d3d4-288d-412d-aeac-02cb59f49ee9" points="10.148 11.78 11.487 11.78 11.602 14.924 10.817 15.474 10.032 14.924 10.148 11.78" fill="#0d2192"/>
      <rect id="bd7886e5-58b3-42e5-9ad4-a17e457d137c" x="7.1447" y="2.293" width="5.0813" height="3.5761" rx="0.0989" fill="#0d2192"/>
      <rect id="abcb40da-95ee-422a-b8c1-8c5d63f7589d" x="7.1447" y="2.293" width="1.8796" height="3.5761" fill="#fff" opacity="0.08"/>
      <rect id="bcd255e1-88c8-400f-bd06-d46a747c03ae" x="5.5401" y="5.6384" width="8.2236" height="0.8583" rx="0.184" fill="#0d2192"/>
      <rect id="e521e23f-e04d-41a7-bf35-9853bd44237e" x="5.5401" y="5.6384" width="2.5444" height="1.0564" fill="#fff" opacity="0.08"/>
    </g>
  </g>
</svg>
